<svg xmlns="http://www.w3.org/2000/svg" version="1.1" xmlns:xlink="http://www.w3.org/1999/xlink" xmlns:svgjs="http://svgjs.dev/svgjs" width="1500" height="382" viewBox="0 0 1500 382"><g transform="matrix(1,0,0,1,-0.9090909090909918,-0.8719345287169631)"><svg viewBox="0 0 396 101" data-background-color="#010536" preserveAspectRatio="xMidYMid meet" height="382" width="1500" xmlns="http://www.w3.org/2000/svg" xmlns:xlink="http://www.w3.org/1999/xlink"><g id="tight-bounds" transform="matrix(1,0,0,1,0.2400000000000091,0.23053766335186765)"><svg viewBox="0 0 395.52 100.5389246732963" height="100.5389246732963" width="395.52"><g><svg viewBox="0 0 654.7379180659241 166.43063871657762" height="100.5389246732963" width="395.52"><g><rect width="10.860265380521072" height="121.02951657754012" x="194.8523661771813" y="22.70056106951875" fill="#fbfbf8" opacity="1" stroke-width="0" stroke="transparent" fill-opacity="1" class="rect-qz-0" data-fill-palette-color="primary" rx="1%" id="qz-0" data-palette-color="#fbfbf8"></rect></g><g><rect width="10.860265380521072" height="121.02951657754012" x="219.92763860026923" y="22.70056106951875" fill="#fbfbf8" opacity="1" stroke-width="0" stroke="transparent" fill-opacity="1" class="rect-qz-1" data-fill-palette-color="primary" rx="1%" id="qz-1" data-palette-color="#fbfbf8"></rect></g><g transform="matrix(1,0,0,1,259.217918065924,23.001629518716605)"><svg viewBox="0 0 395.52000000000004 120.42737967914441" height="120.42737967914441" width="395.52000000000004"><g id="textblocktransform"><svg viewBox="0 0 395.52000000000004 120.42737967914441" height="120.42737967914441" width="395.52000000000004" id="textblock"><g><svg viewBox="0 0 395.52000000000004 120.42737967914441" height="120.42737967914441" width="395.52000000000004"><g transform="matrix(1,0,0,1,0,0)"><svg width="395.52000000000004" viewBox="0.5 -45.15 149.58 45.55" height="120.42737967914441" data-palette-color="#fbfbf8"><path d="M14.2 0L5.6 0 5.6-34.7 0.5-34.7 0.5-42.95 19.3-42.95 19.3-34.7 14.2-34.7 14.2 0ZM21.55 0L21.55-36.6 30.3-36.6 30.3-32.55Q30.95-34.7 32.57-35.88 34.2-37.05 36.6-37.05L36.6-37.05 36.6-29.75Q34.75-29.75 32.52-29.23 30.3-28.7 30.3-28L30.3-28 30.3 0 21.55 0ZM45.4 0.4Q41.15 0.4 39.57-2.43 38-5.25 38-10.5L38-10.5Q38-14.8 39.12-17.1 40.25-19.4 42.25-20.48 44.25-21.55 48.35-22.85L48.35-22.85 50.75-23.65 50.75-23.75 50.75-27.4Q50.75-28.85 50.17-29.63 49.6-30.4 48.8-30.4L48.8-30.4Q48.1-30.4 47.57-29.75 47.05-29.1 47.05-28L47.05-28 47.05-25.8 38.55-25.8 38.55-27Q38.55-32.4 41.07-34.7 43.6-37 49.3-37L49.3-37Q53.85-37 56.7-34.63 59.55-32.25 59.55-27.9L59.55-27.9 59.55 0 50.85 0 50.85-4.35Q50.2-2.1 48.77-0.85 47.35 0.4 45.4 0.4L45.4 0.4ZM48.85-6.4Q49.85-6.4 50.27-7.23 50.7-8.05 50.7-9.25L50.7-9.25 50.7-19.45Q48.75-18.7 47.82-17.55 46.9-16.4 46.9-14.35L46.9-14.35 46.9-9.65Q46.9-6.4 48.85-6.4L48.85-6.4ZM71.59-39.05L62.84-39.05 62.84-45.15 71.59-45.15 71.59-39.05ZM71.59 0L62.84 0 62.84-36.6 71.59-36.6 71.59 0ZM83.94 0L75.04 0 75.04-43.2 83.94-43.2 83.94 0ZM97.69 0.4Q92.04 0.4 89.59-2.7 87.14-5.8 87.14-11.95L87.14-11.95 87.14-26.65Q87.14-31.7 90.04-34.35 92.94-37 98.14-37L98.14-37Q108.69-37 108.69-26.65L108.69-26.65 108.69-24Q108.69-20 108.59-17.5L108.59-17.5 95.89-17.5 95.89-10.4Q95.89-8.5 96.29-7.43 96.69-6.35 97.99-6.35L97.99-6.35Q98.99-6.35 99.41-6.95 99.84-7.55 99.91-8.33 99.99-9.1 99.99-10.6L99.99-10.6 99.99-14.15 108.69-14.15 108.69-12.05Q108.69-5.65 106.21-2.63 103.74 0.4 97.69 0.4L97.69 0.4ZM95.84-21.85L99.99-21.85 99.99-26.55Q99.99-30.5 98.04-30.5L98.04-30.5Q95.84-30.5 95.84-26.55L95.84-26.55 95.84-21.85ZM111.84 0L111.84-36.6 120.59-36.6 120.59-32.55Q121.24-34.7 122.86-35.88 124.49-37.05 126.89-37.05L126.89-37.05 126.89-29.75Q125.04-29.75 122.81-29.23 120.59-28.7 120.59-28L120.59-28 120.59 0 111.84 0ZM139.08 0.4Q128.23 0.4 128.23-10.6L128.23-10.6 128.28-13.5 137.03-13.5 137.08-9.2Q137.08-7.9 137.58-7.23 138.08-6.55 139.23-6.55L139.23-6.55Q140.98-6.55 140.98-9.4L140.98-9.4Q140.98-11.5 140.16-12.7 139.33-13.9 137.53-15.25L137.53-15.25 132.88-18.85Q130.48-20.7 129.43-22.68 128.38-24.65 128.38-28.25L128.38-28.25Q128.38-31.05 129.86-33.02 131.33-35 133.78-36 136.23-37 139.23-37L139.23-37Q149.88-37 149.88-26.4L149.88-26.4 149.88-25.7 140.83-25.7 140.83-27.1Q140.83-28.4 140.41-29.33 139.98-30.25 138.98-30.25L138.98-30.25Q138.08-30.25 137.61-29.73 137.13-29.2 137.13-28.3L137.13-28.3Q137.13-26.3 138.68-25.2L138.68-25.2 144.08-21.25Q146.98-19.1 148.53-16.57 150.08-14.05 150.08-10.2L150.08-10.2Q150.08-5.1 147.18-2.35 144.28 0.4 139.08 0.4L139.08 0.4Z" opacity="1" transform="matrix(1,0,0,1,0,0)" fill="#fbfbf8" class="wordmark-text-0" data-fill-palette-color="primary" id="text-0"></path></svg></g></svg></g></svg></g></svg></g><g><svg viewBox="0 0 166.4223520920476 166.43063871657762" height="166.43063871657762" width="166.4223520920476"><g><svg xmlns="http://www.w3.org/2000/svg" xmlns:xlink="http://www.w3.org/1999/xlink" version="1.1" x="0" y="0" viewBox="0 0 80.333 80.337" enable-background="new 0 0 80.333 80.336" xml:space="preserve" width="166.4223520920476" height="166.43063871657762" class="icon-icon-0" data-fill-palette-color="accent" id="icon-0"><g fill="#ffffff" data-fill-palette-color="accent"><g fill="#ffffff" data-fill-palette-color="accent"><path d="M75.065 0H5.268C2.359 0 0 2.359 0 5.268v69.801c0 2.906 2.359 5.268 5.268 5.268h69.797c2.912 0 5.268-2.361 5.268-5.268V5.268C80.333 2.359 77.977 0 75.065 0zM36.066 5.282h8.202v8.203h-8.202V5.282zM13.484 74.887H5.282v-8.201h8.203V74.887zM13.484 13.484H5.282V5.282h8.203V13.484zM28.876 74.887h-8.203v-8.201h8.203V74.887zM28.876 13.484h-8.203V5.282h8.203V13.484zM44.268 74.887h-8.202v-8.201h8.202V74.887zM29.602 52.387V27.946l21.13 12.221L29.602 52.387zM59.661 74.887h-8.203v-8.201h8.203V74.887zM59.661 13.484h-8.203V5.282h8.203V13.484zM75.052 74.887h-8.203v-8.201h8.203V74.887zM75.052 13.484h-8.203V5.282h8.203V13.484z" fill="#ffffff" data-fill-palette-color="accent"></path></g></g></svg></g></svg></g></svg></g><defs></defs></svg><rect width="395.52" height="100.5389246732963" fill="none" stroke="none" visibility="hidden"></rect></g></svg></g></svg>